<svg width="384" height="384" viewBox="0 0 384 384" xmlns="http://www.w3.org/2000/svg">
  <defs>
    <linearGradient id="farezyGradient384" x1="0%" y1="0%" x2="100%" y2="100%">
      <stop offset="0%" style="stop-color:#f97316"/>
      <stop offset="100%" style="stop-color:#eab308"/>
    </linearGradient>
    <filter id="shadow384" x="-20%" y="-20%" width="140%" height="140%">
      <feDropShadow dx="0" dy="4" stdDeviation="8" flood-color="#000000" flood-opacity="0.15"/>
    </filter>
  </defs>
  <circle cx="192" cy="192" r="168" fill="url(#farezyGradient384)" filter="url(#shadow384)"/>
  <g transform="translate(192,192)">
    <rect x="-64" y="-24" width="128" height="48" rx="20" fill="white" opacity="0.95"/>
    <rect x="-52" y="-16" width="40" height="20" rx="6" fill="#f97316" opacity="0.8"/>
    <rect x="12" y="-16" width="40" height="20" rx="6" fill="#f97316" opacity="0.8"/>
    <circle cx="-40" cy="28" r="14" fill="white"/>
    <circle cx="40" cy="28" r="14" fill="white"/>
    <circle cx="-40" cy="28" r="10" fill="#1f2937"/>
    <circle cx="40" cy="28" r="10" fill="#1f2937"/>
    <path d="M -96,-48 L -80,-40 M -96,-32 L -76,-28 M -96,-16 L -80,-16 M -96,0 L -76,4 M -96,16 L -80,12" 
          stroke="white" stroke-width="3" stroke-linecap="round" opacity="0.7"/>
    <text x="0" y="8" text-anchor="middle" font-family="Arial, sans-serif" font-size="36" font-weight="bold" fill="white">F</text>
  </g>
</svg>