<svg width="512" height="512" viewBox="0 0 512 512" xmlns="http://www.w3.org/2000/svg">
  <defs>
    <linearGradient id="farezyGradient512" x1="0%" y1="0%" x2="100%" y2="100%">
      <stop offset="0%" style="stop-color:#f97316"/>
      <stop offset="100%" style="stop-color:#eab308"/>
    </linearGradient>
    <filter id="shadow512" x="-20%" y="-20%" width="140%" height="140%">
      <feDropShadow dx="0" dy="6" stdDeviation="12" flood-color="#000000" flood-opacity="0.15"/>
    </filter>
  </defs>
  <circle cx="256" cy="256" r="224" fill="url(#farezyGradient512)" filter="url(#shadow512)"/>
  <g transform="translate(256,256)">
    <rect x="-80" y="-30" width="160" height="60" rx="25" fill="white" opacity="0.95"/>
    <rect x="-65" y="-20" width="50" height="25" rx="8" fill="#f97316" opacity="0.8"/>
    <rect x="15" y="-20" width="50" height="25" rx="8" fill="#f97316" opacity="0.8"/>
    <circle cx="-50" cy="35" r="18" fill="white"/>
    <circle cx="50" cy="35" r="18" fill="white"/>
    <circle cx="-50" cy="35" r="12" fill="#1f2937"/>
    <circle cx="50" cy="35" r="12" fill="#1f2937"/>
    <path d="M -120,-60 L -100,-50 M -120,-40 L -95,-35 M -120,-20 L -100,-20 M -120,0 L -95,5 M -120,20 L -100,15" 
          stroke="white" stroke-width="4" stroke-linecap="round" opacity="0.7"/>
    <text x="0" y="10" text-anchor="middle" font-family="Arial, sans-serif" font-size="48" font-weight="bold" fill="white">F</text>
  </g>
</svg>